<svg xmlns="http://www.w3.org/2000/svg" enable-background="new 0 0 47.5 47.5" viewBox="0 0 47.5 47.5"><defs><clipPath id="a" clipPathUnits="userSpaceOnUse"><path d="M 0,38 38,38 38,0 0,0 0,38 Z"/></clipPath></defs><g clip-path="url(#a)" transform="matrix(1.25 0 0 -1.25 0 47.5)"><path fill="#ccd6dd" d="m 0,0 c 0,-9.941 -8.059,-18 -18,-18 -9.941,0 -18,8.059 -18,18 0,9.941 8.059,18 18,18 C -8.059,18 0,9.941 0,0" transform="translate(37 19)"/><path fill="#66757f" d="m 0,0 c 0,-9.941 8.059,-18 18,-18 0.295,0 0.58,0.029 0.87,0.043 C 24.761,-15.393 29,-8.332 29,0 29,8.331 24.761,15.393 18.87,17.956 18.58,17.97 18.295,18 18,18 8.059,18 0,9.941 0,0" transform="translate(1 19)"/><path fill="#5b6876" d="M 0,0 C 0,-1.933 -1.566,-3.5 -3.5,-3.5 -5.434,-3.5 -7,-1.933 -7,0 -7,1.933 -5.434,3.5 -3.5,3.5 -1.566,3.5 0,1.933 0,0" transform="translate(15 28.5)"/><path fill="#5b6876" d="m 0,0 c 0,-1.657 -1.343,-3 -3,-3 -1.657,0 -3,1.343 -3,3 0,1.657 1.343,3 3,3 1.657,0 3,-1.343 3,-3" transform="translate(24 21)"/><path fill="#5b6876" d="M 0,0 C 0,-1.934 -1.566,-3.5 -3.5,-3.5 -5.434,-3.5 -7,-1.934 -7,0 -7,1.934 -5.434,3.5 -3.5,3.5 -1.566,3.5 0,1.934 0,0" transform="translate(26 9.5)"/><path fill="#5b6876" d="m 0,0 c 0,-1.104 -0.896,-2 -2,-2 -1.104,0 -2,0.896 -2,2 0,1.104 0.896,2 2,2 1.104,0 2,-0.896 2,-2" transform="translate(24 31)"/><path fill="#5b6876" d="M 0,0 C 0,-0.553 0.448,-1 1,-1 1.552,-1 2,-0.553 2,0 2,0.552 1.552,1 1,1 0.448,1 0,0.552 0,0" transform="translate(3 19)"/><path fill="#b8c5cd" d="M 0,0 C 0,-0.553 0.447,-1 1,-1 1.553,-1 2,-0.553 2,0 2,0.552 1.553,1 1,1 0.447,1 0,0.552 0,0" transform="translate(30 28)"/><path fill="#5b6876" d="M 0,0 C 0,-0.553 0.447,-1 1,-1 1.553,-1 2,-0.553 2,0 2,0.553 1.553,1 1,1 0.447,1 0,0.553 0,0" transform="translate(15 6)"/><path fill="#b8c5cd" d="m 0,0 c 0,-1.104 -0.896,-2 -2,-2 -1.104,0 -2,0.896 -2,2 0,1.104 0.896,2 2,2 1.104,0 2,-0.896 2,-2" transform="translate(35 18)"/><path fill="#5b6876" d="m 0,0 c 0,-1.104 -0.896,-2 -2,-2 -1.104,0 -2,0.896 -2,2 0,1.104 0.896,2 2,2 1.104,0 2,-0.896 2,-2" transform="translate(13 14)"/></g></svg>