<?xml version="1.0" encoding="UTF-8" standalone="no" ?>
<!DOCTYPE svg PUBLIC "-//W3C//DTD SVG 1.1//EN" "http://www.w3.org/Graphics/SVG/1.1/DTD/svg11.dtd">
<svg xmlns="http://www.w3.org/2000/svg" xmlns:xlink="http://www.w3.org/1999/xlink" version="1.1" width="500" height="500" viewBox="0 0 500 500" xml:space="preserve">
<desc>Created with Fabric.js 4.6.0</desc>
<defs>
</defs>
<g transform="matrix(1.37 0 0 1.37 250 250)" id="DQKlFNfEx8r9cEmj51cHN"  >
<radialGradient id="SVGID_2" gradientUnits="userSpaceOnUse" gradientTransform="matrix(1 0 0 1 29.99 29.99)"  cx="170.00607908461492" cy="170.00583609091385" r="170.00607908461492" fx="170.00607908461492" fy="170.00583609091385">
<stop offset="0%" style="stop-color:#E28D4B;stop-opacity: 0.0196078431372549"/>
<stop offset="61.58758854589957%" style="stop-color:#FFF312;stop-opacity: 0.4"/>
<stop offset="100%" style="stop-color:#EBA935;stop-opacity: 1"/>
</radialGradient>
<path style="stroke: rgb(252,134,29); stroke-width: 0; stroke-dasharray: none; stroke-linecap: butt; stroke-dashoffset: 0; stroke-linejoin: miter; stroke-miterlimit: 4; fill: url(#SVGID_2); fill-rule: nonzero; opacity: 0.7;" vector-effect="non-scaling-stroke"  transform=" translate(-200, -200)" d="M 347.062 200.001 C 347.062 185.556 373.233 167.86700000000002 369.67400000000004 154.544 C 365.98800000000006 140.758 334.37600000000003 138.537 327.39200000000005 126.46800000000002 C 320.3070000000001 114.22700000000002 334.11500000000007 85.75500000000002 324.1820000000001 75.82000000000002 C 314.2460000000001 65.88400000000001 285.77400000000006 79.69100000000002 273.5320000000001 72.60900000000002 C 261.4630000000001 65.62600000000002 259.2420000000001 34.011000000000024 245.45800000000008 30.326000000000022 C 232.13500000000008 26.766000000000023 214.44600000000008 52.937000000000026 200.0010000000001 52.937000000000026 C 185.5560000000001 52.937000000000026 167.86700000000008 26.766000000000027 154.5460000000001 30.326000000000025 C 140.7580000000001 34.01200000000003 138.5390000000001 65.62600000000002 126.46900000000011 72.60900000000002 C 114.22800000000011 79.69400000000002 85.75800000000011 65.88400000000003 75.82200000000012 75.82000000000002 C 65.88700000000011 85.75500000000002 79.69200000000012 114.22700000000002 72.61000000000011 126.46900000000002 C 65.62900000000012 138.53600000000003 34.012000000000114 140.75700000000003 30.327000000000112 154.54300000000003 C 26.769000000000112 167.86600000000004 52.94000000000011 185.55500000000004 52.94000000000011 200.00000000000003 C 52.94000000000011 214.44200000000004 26.769000000000112 232.13200000000003 30.327000000000112 245.45500000000004 C 34.01300000000011 259.24000000000007 65.6290000000001 261.461 72.61000000000011 273.53000000000003 C 79.6950000000001 285.773 65.88700000000011 314.24300000000005 75.82200000000012 324.17800000000005 C 85.75800000000012 334.11400000000003 114.22800000000012 320.3070000000001 126.47200000000012 327.38900000000007 C 138.53900000000013 334.37200000000007 140.75800000000012 365.9870000000001 154.54600000000013 369.6720000000001 C 167.86700000000013 373.2320000000001 185.55700000000013 347.0590000000001 200.00100000000015 347.0590000000001 C 214.44500000000016 347.0590000000001 232.13500000000016 373.2320000000001 245.45800000000014 369.6720000000001 C 259.24200000000013 365.9860000000001 261.46300000000014 334.37200000000007 273.53400000000016 327.38900000000007 C 285.77500000000015 320.3040000000001 314.2470000000002 334.1140000000001 324.1820000000002 324.17800000000005 C 334.1160000000002 314.2420000000001 320.3110000000002 285.773 327.39200000000017 273.5280000000001 C 334.37500000000017 261.46100000000007 365.98800000000017 259.24000000000007 369.67400000000015 245.45500000000007 C 373.233 232.133 347.062 214.443 347.062 200.001 z" stroke-linecap="round" />
</g>
<g transform="matrix(1.37 0 0 1.37 250 250)" id="3DSNkLQNN_B8yHkouo0Mf"  >
<radialGradient id="SVGID_3" gradientUnits="userSpaceOnUse" gradientTransform="matrix(1 0 0 1 86.46 86.47)"  cx="113.5335" cy="113.529" r="113.5335" fx="113.5335" fy="113.529">
<stop offset="0%" style="stop-color:#F99843;stop-opacity: 1"/>
<stop offset="60.86639217778769%" style="stop-color:#EB9B55;stop-opacity: 1"/>
<stop offset="100%" style="stop-color:#F6D02D;stop-opacity: 1"/>
</radialGradient>
<path style="stroke: rgb(241,173,111); stroke-width: 0; stroke-dasharray: none; stroke-linecap: butt; stroke-dashoffset: 0; stroke-linejoin: miter; stroke-miterlimit: 4; fill: url(#SVGID_3); fill-rule: nonzero; opacity: 0.5;" vector-effect="non-scaling-stroke"  transform=" translate(-200, -200)" d="M 313.531 200.001 C 313.531 257.343 271.016 304.757 215.782 312.439 C 210.626 313.163 205.358 313.529 200.00400000000002 313.529 C 137.30200000000002 313.529 86.46400000000001 262.7 86.46400000000001 200.002 C 86.46400000000001 137.298 137.30100000000002 86.471 200.00400000000002 86.471 C 205.35800000000003 86.471 210.627 86.839 215.782 87.56 C 271.017 95.24 313.531 142.655 313.531 200.001 z" stroke-linecap="round" />
</g>
</svg>