<?xml version="1.0" encoding="UTF-8" standalone="no" ?>
<!DOCTYPE svg PUBLIC "-//W3C//DTD SVG 1.1//EN" "http://www.w3.org/Graphics/SVG/1.1/DTD/svg11.dtd">
<svg xmlns="http://www.w3.org/2000/svg" xmlns:xlink="http://www.w3.org/1999/xlink" version="1.1" width="500" height="500" viewBox="0 0 500 500" xml:space="preserve">
<desc>Created with Fabric.js 4.6.0</desc>
<defs>
</defs>
<g transform="matrix(7.74 0 0 7.74 250 250)" id="QclFF_VXu2FJdgxUrpjI-"  >
<linearGradient id="SVGID_520" gradientUnits="userSpaceOnUse" gradientTransform="matrix(1 0 0 1 -5 -5)"  x1="5.085491230963775" y1="1.1847740597009633" x2="5.051954477981205" y2="9.123371268349004">
<stop offset="0%" style="stop-color:#31A8F7;stop-opacity: 1"/>
<stop offset="48.28986140824168%" style="stop-color:#FFFFFF;stop-opacity: 1"/>
<stop offset="100%" style="stop-color:#6C3BF4;stop-opacity: 1"/>
</linearGradient>
<path style="stroke: none; stroke-width: 1; stroke-dasharray: none; stroke-linecap: butt; stroke-dashoffset: 0; stroke-linejoin: miter; stroke-miterlimit: 4; fill: url(#SVGID_520); fill-rule: nonzero; opacity: 1;" vector-effect="non-scaling-stroke"  transform=" translate(0, 0)" d="M 0 -5 C -2.757 -5 -5 -2.757 -5 0 C -5 2.757 -2.757 5 0 5 C 2.757 5 5 2.757 5 0 C 5 -2.757 2.757 -5 0 -5 z M 0 3 C -1.654 3 -3 1.654 -3 0 C -3 -1.654 -1.654 -3 0 -3 C 1.654 -3 3 -1.654 3 0 C 3 1.654 1.654 3 0 3 z" stroke-linecap="round" />
</g>
<g transform="matrix(7.74 0 0 7.74 250 250)" id="S_Um1TW8lq6hSMFNzadoK"  >
<linearGradient id="SVGID_423" gradientUnits="userSpaceOnUse" gradientTransform="matrix(1 0 0 1 2 2)"  x1="-1.2924156321888844" y1="5.687228544724839" x2="61.916680411237515" y2="5.445591036994934">
<stop offset="0%" style="stop-color:#F734A4;stop-opacity: 1"/>
<stop offset="48.99598393574306%" style="stop-color:#EAEAFE;stop-opacity: 1"/>
<stop offset="100%" style="stop-color:#BA40FF;stop-opacity: 1"/>
</linearGradient>
<path style="stroke: none; stroke-width: 1; stroke-dasharray: none; stroke-linecap: butt; stroke-dashoffset: 0; stroke-linejoin: miter; stroke-miterlimit: 4; fill: url(#SVGID_423); fill-rule: nonzero; opacity: 1;" vector-effect="non-scaling-stroke"  transform=" translate(-32, -32)" d="M 59 29 C 57.732832613253564 29.0040615150299 56.60525690897749 29.80489653227143 56.184 31 L 53.617999999999995 31 L 54.894 28.447 C 55.14114742554928 27.952981291276355 54.94101870872364 27.35214742554928 54.446999999999996 27.104999999999997 C 53.95298129127635 26.857852574450717 53.352147425549276 27.057981291276356 53.105 27.552 L 51.382 31 L 49.477 31 L 50.928999999999995 27.372 C 51.13417378456214 26.858927467407195 50.8845725325928 26.276673784562142 50.3715 26.0715 C 49.85842746740719 25.866326215437862 49.27617378456214 26.115927467407197 49.071 26.629 L 47.323 31 L 40.941 31 C 40.75237313001466 29.312441954862933 40.087877418017385 27.713282389090786 39.025000000000006 26.388999999999996 L 40.864000000000004 24.55 L 45.19200000000001 26.404 C 45.43555196080721 26.50908037077942 45.71091656850588 26.512880983695595 45.95727586397527 26.414562422518166 C 46.203635159444666 26.31624386134074 46.40071943838701 26.123895482544985 46.50500000000001 25.88 C 46.72253952853922 25.372449568796203 46.48750626022169 24.784642556794452 45.98000000000001 24.567 L 42.38800000000001 23.027 L 43.735000000000014 21.68 L 47.39100000000001 22.899 C 47.91484208521452 23.07352198094653 48.48097801905348 22.790342085214508 48.65550000000001 22.2665 C 48.83002198094654 21.742657914785493 48.546842085214514 21.176521980946532 48.02300000000001 21.002000000000002 L 45.31500000000001 20.1 L 47.128000000000014 18.287000000000003 C 47.52600000000002 18.477000000000004 47.960000000000015 18.587000000000003 48.414000000000016 18.587000000000003 C 49.216000000000015 18.587000000000003 49.97000000000001 18.274000000000004 50.53500000000002 17.708000000000002 C 51.10100000000002 17.141000000000002 51.414000000000016 16.388 51.414000000000016 15.587000000000002 C 51.414000000000016 14.785000000000002 51.10100000000001 14.032000000000002 50.53500000000002 13.465000000000002 C 49.40300000000002 12.333000000000002 47.42700000000002 12.331000000000001 46.29300000000002 13.465000000000002 C 45.728607055220216 14.026719694142086 45.41213459441671 14.790718057993084 45.41400000000002 15.587000000000002 C 45.41400000000002 16.041 45.52400000000002 16.475 45.71400000000002 16.873 L 43.90100000000002 18.686 L 42.99800000000002 15.978 C 42.81796175316466 15.46135264368376 42.25615257054942 15.185305159767513 41.737165469913705 15.358483248698672 C 41.21817836927799 15.53166133762983 40.934712463061274 16.089764241277564 41.10100000000002 16.611 L 42.32000000000002 20.267 L 40.97300000000002 21.614 L 39.43300000000002 18.021 C 39.210429477111774 17.52162584407741 38.62806881737308 17.293568826691633 38.12557420867957 17.509001771006364 C 37.62307959998607 17.7244347153211 37.38674836936617 18.303486950118504 37.59500000000002 18.809 L 39.44900000000002 23.137 L 37.61000000000002 24.976 C 36.28571761090923 23.913122581982616 34.68655804513708 23.248626869985344 32.999000000000024 23.06 L 32.999000000000024 16.677999999999997 L 37.370000000000026 14.929999999999998 C 37.873926239563886 14.719407852499343 38.11567798951938 14.143454813542954 37.91302763892695 13.63628270970179 C 37.71037728833452 13.129110605860626 37.13829281568106 12.878341453374803 36.62800000000003 13.072999999999999 L 33 14.523 L 33 12.618 L 36.447 10.894 C 36.94101870872365 10.646852574450719 37.141147425549285 10.046018708723643 36.894 9.552 C 36.64685257445072 9.057981291276354 36.04601870872364 8.85785257445072 35.552 9.105 L 33 10.382 L 33 7.816 C 34.195103467728565 7.394743091022507 34.9959384849701 6.267167386746432 35 5 C 35 3.346 33.653999999999996 2 32 2 C 30.346000000000004 2 29 3.346 29 5 C 29 6.302 29.839 7.402 31 7.816 L 31 10.382 L 28.447 9.106 C 27.952981291276355 8.85885257445072 27.35214742554928 9.058981291276355 27.105 9.553 C 26.85785257445072 10.047018708723645 27.057981291276356 10.64785257445072 27.552 10.895 L 31 12.618 L 31 14.523 L 27.371 13.071 C 26.86070718431896 12.876341453374776 26.288622711665475 13.127110605860596 26.08597236107304 13.634282709701774 C 25.8833220104806 14.141454813542952 26.125073760436116 14.717407852499358 26.628999999999998 14.927999999999999 L 31 16.677 L 31 23.058999999999997 C 29.312441954862933 23.24762686998534 27.71328238909079 23.912122581982615 26.389000000000003 24.974999999999994 L 24.55 23.136 L 26.404 18.808 C 26.550823464459576 18.478577025732445 26.508884781873167 18.095615467863116 26.29424507179403 17.80577685665277 C 26.079605361714897 17.515938245442428 25.725523662260784 17.36413390421836 25.367601479149894 17.408499843049082 C 25.009679296039007 17.452865781879808 24.703377697155208 17.686527371414794 24.566 18.02 L 23.026 21.613 L 21.679 20.266 L 22.898 16.61 C 23.016603078910403 16.26965027849856 22.94287840496541 15.891809691879526 22.705027500492587 15.621011666601287 C 22.467176596019762 15.350213641323048 22.10200428090824 15.228361203017517 21.74919805253116 15.302065941477627 C 21.39639182415408 15.37577067993774 21.110544578510563 15.633627594917593 21.001 15.977 L 20.098000000000003 18.685000000000002 L 18.285000000000004 16.872000000000003 C 18.475000000000005 16.474000000000004 18.585000000000004 16.040000000000003 18.585000000000004 15.586000000000004 C 18.585000000000004 14.784000000000004 18.272000000000006 14.031000000000004 17.706000000000003 13.464000000000004 C 16.573000000000004 12.331000000000003 14.597000000000003 12.333000000000004 13.464000000000002 13.464000000000004 C 12.899607055220194 14.025719694142088 12.583134594416693 14.789718057993086 12.585000000000003 15.586000000000006 C 12.585000000000003 16.387000000000004 12.898000000000003 17.140000000000004 13.463000000000003 17.707000000000004 C 14.029000000000003 18.274000000000004 14.783000000000003 18.586000000000006 15.585000000000003 18.586000000000006 C 16.039 18.586000000000006 16.473000000000003 18.476000000000006 16.871000000000002 18.286000000000005 L 18.684 20.099000000000004 L 15.976 21.001000000000005 C 15.464164391065294 21.18422891463656 15.192471597416725 21.742795636422493 15.364305276874587 22.258568563529398 C 15.536138956332449 22.774341490636303 16.088543417246274 23.058353934676624 16.608 22.898000000000003 L 20.264 21.679000000000002 L 21.611 23.026000000000003 L 18.019000000000002 24.566000000000003 C 17.511726457280417 24.783600191433337 17.276899808566668 25.371226457280418 17.494500000000002 25.878500000000003 C 17.712100191433336 26.385773542719587 18.299726457280418 26.620600191433336 18.807000000000002 26.403000000000002 L 23.135 24.549000000000003 L 24.974 26.388 C 23.911122581982617 27.71228238909079 23.24662686998534 29.31144195486294 23.058 30.999000000000006 L 16.676000000000002 30.999000000000002 L 14.928000000000003 26.627000000000002 C 14.722826215437863 26.113927467407194 14.14057253259281 25.864326215437863 13.627500000000003 26.0695 C 13.114427467407197 26.27467378456214 12.864826215437862 26.856927467407193 13.070000000000002 27.37 L 14.523 31 L 12.618 31 L 10.894 27.553 C 10.64685257445072 27.058981291276357 10.046018708723645 26.858852574450722 9.552 27.106 C 9.057981291276356 27.35314742554928 8.857852574450721 27.953981291276357 9.105 28.448 L 10.382 31 L 7.816 31 C 7.394743091022507 29.80489653227143 6.267167386746432 29.0040615150299 5 29 C 3.346 29 2 30.346 2 32 C 2 33.653999999999996 3.346 35 5 35 C 6.267167386746432 34.9959384849701 7.394743091022508 34.195103467728565 7.816000000000001 33 L 10.382 33 L 9.106 35.553 C 8.942968312989972 35.87298399309572 8.964037201410513 36.255817781861 9.161197978299843 36.555978930018476 C 9.35835875518917 36.856140078175954 9.701332194181205 37.02753094148444 10.059747539388619 37.00500257876826 C 10.41816288459603 36.98247421605208 10.736976026628318 36.76948645033031 10.895 36.446999999999996 L 12.618 33 L 14.523 33 L 13.071 36.628 C 12.86582621543786 37.14107253259281 13.115427467407192 37.72332621543786 13.628499999999999 37.9285 C 14.141572532592807 38.13367378456214 14.72382621543786 37.88407253259281 14.929 37.371 L 16.677 33 L 23.058999999999997 33 C 23.247626869985343 34.68755804513707 23.91212258198262 36.28671761090921 24.975 37.611 L 23.136 39.449999999999996 L 18.808 37.596 C 18.307328481444603 37.4086276551619 17.747783675932208 37.64773203429556 17.537136083123798 38.13906487132837 C 17.326488490315388 38.63039770836119 17.539087174462125 39.200540754443374 18.02 39.434 L 21.612 40.974 L 20.264999999999997 42.321 L 16.608999999999998 41.102 C 16.26865027849856 40.98339692108959 15.890809691879525 41.05712159503459 15.620011666601286 41.29497249950741 C 15.349213641323047 41.53282340398023 15.227361203017516 41.89799571909175 15.301065941477626 42.25080194746884 C 15.374770679937736 42.60360817584591 15.63262759491759 42.88945542148943 15.975999999999999 42.998999999999995 L 18.683999999999997 43.900999999999996 L 16.860999999999997 45.724 C 15.748999999999997 45.223 14.349999999999998 45.407 13.463999999999997 46.291999999999994 C 12.899607055220189 46.85371969414208 12.583134594416688 47.61771805799307 12.584999999999997 48.413999999999994 C 12.584999999999997 49.214999999999996 12.897999999999998 49.967999999999996 13.463999999999997 50.535 C 14.02538761428959 51.09915684023212 14.789120822927735 51.41530854093193 15.584999999999999 51.413 C 16.385999999999996 51.413 17.139999999999997 51.101 17.705999999999996 50.535 C 18.271999999999995 49.967999999999996 18.584999999999997 49.214999999999996 18.584999999999997 48.413999999999994 C 18.584999999999997 47.959999999999994 18.474999999999998 47.525999999999996 18.284999999999997 47.12799999999999 L 20.097999999999995 45.31499999999999 L 21.000999999999994 48.02299999999999 C 21.10499155561118 48.37314727279922 21.39161917310539 48.63873986125243 21.748662764386484 48.71579328565573 C 22.105706355667575 48.79284671005902 22.476356896043637 48.669101039142326 22.71549774721749 48.39300502398272 C 22.954638598391345 48.1169090088231 23.02422018084125 47.732392146337915 22.896999999999995 47.389999999999986 L 21.677999999999994 43.73399999999999 L 23.024999999999995 42.386999999999986 L 24.564999999999994 45.97999999999999 C 24.669493117427546 46.223715557873476 24.866594888412017 46.4158879520567 25.11287826589352 46.51417621542327 C 25.35916164337502 46.612464478789846 25.634417769049488 46.608803537652534 25.877999999999993 46.50399999999999 C 26.12189519002156 46.39969527105623 26.314293524845638 46.202672686316205 26.412777302907255 45.956369447087816 C 26.511261080968872 45.71006620785942 26.507743473194196 45.43470708856924 26.40299999999999 45.19099999999999 L 24.548999999999992 40.862999999999985 L 26.38799999999999 39.02399999999999 C 27.712282389090777 40.086877418017366 29.311441954862925 40.75137313001464 30.998999999999988 40.93999999999998 L 30.99899999999999 47.32199999999998 L 26.627999999999993 49.06999999999998 C 26.12407376043611 49.28059214750062 25.882322010480596 49.856545186457026 26.084972361073035 50.363717290298204 C 26.28762271166547 50.87088939413938 26.859707184318957 51.1216585466252 27.369999999999994 50.92699999999998 L 30.999999999999993 49.476999999999975 L 30.999999999999993 51.38199999999998 L 27.552999999999994 53.10599999999997 C 27.05898129127635 53.35314742554925 26.85885257445071 53.95398129127633 27.105999999999995 54.44799999999997 C 27.353147425549274 54.942018708723616 27.95398129127635 55.142147425549254 28.447999999999993 54.894999999999975 L 31 53.618 L 31 56.184000000000005 C 29.804896532271435 56.605256908977495 29.004061515029903 57.73283261325357 29 59 C 29 60.653999999999996 30.346 62 32 62 C 33.653999999999996 62 35 60.653999999999996 35 59 C 34.9959384849701 57.732832613253564 34.19510346772857 56.60525690897749 33 56.184 L 33 53.617999999999995 L 35.553 54.894 C 35.87257407017285 55.0538763514839 36.25316570674932 55.03111745561206 36.551409723685175 54.834296368193534 C 36.84965374062104 54.63747528077501 37.020239776922175 54.29649380709597 36.99890972368518 53.939796368193534 C 36.977579670448186 53.583098929291104 36.767574070172856 53.2648763514839 36.448 53.105 L 33 51.382 L 33 49.477 L 36.629 50.928999999999995 C 37.14205951729347 51.1329089295602 37.72339460004404 50.883382024810345 37.928999999999995 50.370999999999995 C 38.027489627470786 50.1246216874681 38.02402490601498 49.84920146640617 37.91936866428809 49.60537868102095 C 37.81471242256121 49.36155589563574 37.61744542515959 49.1693215745567 37.370999999999995 49.071 L 33 47.323 L 33 40.941 C 34.68755804513707 40.75237313001466 36.286717610909214 40.087877418017385 37.611 39.025000000000006 L 39.449999999999996 40.864000000000004 L 37.596 45.19200000000001 C 37.37812366619175 45.69954968509451 37.6129503149055 46.28762366619176 38.12049999999999 46.50550000000001 C 38.628049685094496 46.723376333808254 39.21612366619175 46.48854968509451 39.434 45.98100000000001 L 40.974 42.388000000000005 L 42.321 43.73500000000001 L 41.102 47.391000000000005 C 40.97477981915874 47.733392146337934 41.04436140160865 48.11790900882312 41.283502252782505 48.394005023982736 C 41.522643103956355 48.670101039142345 41.89329364433242 48.793846710059036 42.25033723561351 48.71679328565575 C 42.6073808268946 48.63973986125245 42.89400844438882 48.37414727279924 42.998 48.02400000000001 L 43.900999999999996 45.31600000000001 L 45.714 47.12900000000001 C 45.524 47.527000000000015 45.414 47.96100000000001 45.414 48.41500000000001 C 45.414 49.216000000000015 45.727000000000004 49.969000000000015 46.293 50.53700000000001 C 46.859 51.103000000000016 47.613 51.41500000000001 48.414 51.41500000000001 C 49.20987917707227 51.41730854093195 49.97361238571041 51.101156840232136 50.535000000000004 50.53700000000001 C 51.101000000000006 49.97000000000001 51.414 49.21700000000001 51.414 48.41600000000001 C 51.414 47.61400000000001 51.101 46.86100000000001 50.536 46.29500000000001 C 49.65 45.40800000000001 48.251000000000005 45.22500000000001 47.139 45.726000000000006 L 45.316 43.903000000000006 L 48.024 43.001000000000005 C 48.54064735631625 42.82096175316465 48.81669484023251 42.2591525705494 48.64351675130135 41.740165469913684 C 48.47033866237019 41.221178369277965 47.91223575872244 40.937712463061246 47.391 41.104000000000006 L 43.735 42.32300000000001 L 42.388 40.976000000000006 L 45.98 39.43600000000001 C 46.48754968509449 39.21839980856667 46.72260019143333 38.63054968509451 46.504999999999995 38.123000000000005 C 46.28739980856667 37.61545031490551 45.6995496850945 37.38039980856667 45.192 37.598000000000006 L 40.864 39.452000000000005 L 39.025 37.61300000000001 C 40.08787741801738 36.28871761090922 40.752373130014654 34.689558045137076 40.940999999999995 33.00200000000001 L 47.32299999999999 33.00200000000001 L 49.07099999999999 37.37400000000001 C 49.27901961990228 37.88398640176463 49.8590640842806 38.1311745811997 50.37099999999999 37.92800000000001 C 50.61744542515958 37.82967842544331 50.8147124225612 37.63744410436427 50.919368664288086 37.39362131897906 C 51.02402490601497 37.14979853359384 51.02748962747078 36.87437831253191 50.92899999999999 36.628000000000014 L 49.477 33 L 51.382 33 L 53.105999999999995 36.447 C 53.22406696715215 36.68457083215237 53.43186478799832 36.86535681214799 53.68348628608513 36.9494182820532 C 53.93510778417194 37.03347975195842 54.209844154126685 37.013898333841105 54.446999999999996 36.895 C 54.684273139787756 36.77635443921743 54.86467953449416 36.56829076541788 54.94851326276145 36.31660203312547 C 55.032346991028746 36.064913300833055 55.012737257989336 35.790227265556325 54.894 35.553000000000004 L 53.618 33 L 56.184000000000005 33 C 56.605256908977495 34.195103467728565 57.73283261325357 34.9959384849701 59 35 C 60.653999999999996 35 62 33.653999999999996 62 32 C 62 30.346000000000004 60.653999999999996 29 59 29 z M 47.707 14.879 C 47.89392598715317 14.69060446353004 48.14860724429315 14.58505763419197 48.414 14.586 C 48.817741487024556 14.587458738077629 49.18108227627373 14.831325882171807 49.335390213404104 15.204418868972878 C 49.48969815053448 15.577511855773947 49.40476122696368 16.006782670196717 49.120000000000005 16.293 C 48.72424332748247 16.669508205723275 48.10275667251754 16.669508205723275 47.70700000000001 16.293 C 47.31661806166714 15.902500148514186 47.31661806166714 15.269499851485813 47.70700000000001 14.879 z M 32 4 C 32.405048424437 3.9995955579358826 32.77041934434044 4.243333021349354 32.925611551526984 4.617471723625459 C 33.08080375871353 4.991610425901565 32.995226019371586 5.42240075855939 32.70881338896549 5.708813388965488 C 32.42240075855939 5.995226019371588 31.991610425901566 6.0808037587135315 31.61747172362546 5.925611551526986 C 31.243333021349354 5.77041934434044 30.999595557935884 5.405048424437004 31 5.000000000000002 C 31 4.449 31.448 4 32 4 z M 14.879 16.293 C 14.595124245670725 16.006305820314317 14.510887544799429 15.577319768647492 14.665272881197671 15.204567619804775 C 14.819658217595913 14.83181547096206 15.182546255975238 14.588018166014734 15.586 14.585999999999999 C 15.989453744024761 14.588018166014736 16.352341782404086 14.831815470962061 16.506727118802328 15.204567619804777 C 16.66111245520057 15.577319768647493 16.576875754329272 16.006305820314317 16.293 16.293 C 15.89711048660404 16.670142875475502 15.274889513395959 16.670142875475502 14.879 16.293 z M 5 33 C 4.465093034759674 32.97607225358738 4.043732538492688 32.53544187220557 4.043732538492688 32 C 4.043732538492688 31.464558127794433 4.465093034759674 31.02392774641262 4.999999999999999 31 C 5.534906965240326 31.023927746412618 5.956267461507312 31.464558127794433 5.956267461507312 32 C 5.956267461507312 32.53544187220557 5.534906965240326 32.97607225358738 5 33 z M 16.293 49.120999999999995 C 15.89731426426611 49.498651873212374 15.27468573573389 49.498651873212374 14.879 49.120999999999995 C 14.519820310057568 48.72560302178944 14.534397208194635 48.117842533873706 14.912119871034172 47.74011987103417 C 15.289842533873708 47.36239720819463 15.89760302178944 47.347820310057564 16.293 47.706999999999994 C 16.683381938332865 48.09749985148581 16.683381938332865 48.73050014851418 16.293 49.120999999999995 z M 32 60 C 31.465093034759676 59.97607225358738 31.043732538492687 59.53544187220557 31.043732538492687 59 C 31.043732538492687 58.46455812779443 31.465093034759672 58.02392774641262 32 58 C 32.534906965240324 58.02392774641262 32.95626746150731 58.46455812779443 32.95626746150731 59 C 32.95626746150731 59.53544187220557 32.534906965240324 59.97607225358738 32 60 z M 32 39 C 28.141 39 25 35.86 25 32 C 25 28.14 28.141 25 32 25 C 35.859 25 39 28.14 39 32 C 39 35.86 35.859 39 32 39 z M 49.120999999999995 47.707 C 49.510999999999996 48.097 49.510999999999996 48.731 49.120999999999995 49.122 C 48.72490763522465 49.49863550822336 48.103092364775335 49.49863550822336 47.706999999999994 49.122 C 47.42241720620809 48.83539494216808 47.337732021347364 48.40594931474039 47.492206390228986 48.032763710709546 C 47.64668075911061 47.659578106678694 48.010109924112825 47.41562243554673 48.413999999999994 47.414 C 48.681999999999995 47.414 48.931999999999995 47.518 49.120999999999995 47.707 z M 59 33 C 58.465093034759676 32.97607225358738 58.04373253849269 32.53544187220557 58.04373253849269 32 C 58.04373253849269 31.464558127794433 58.465093034759676 31.02392774641262 59 31 C 59.534906965240324 31.023927746412618 59.95626746150731 31.464558127794433 59.95626746150731 32 C 59.95626746150731 32.53544187220557 59.534906965240324 32.97607225358738 59 33 z" stroke-linecap="round" />
</g>
</svg>