<?xml version="1.0" encoding="UTF-8" standalone="no" ?>
<!DOCTYPE svg PUBLIC "-//W3C//DTD SVG 1.1//EN" "http://www.w3.org/Graphics/SVG/1.1/DTD/svg11.dtd">
<svg xmlns="http://www.w3.org/2000/svg" xmlns:xlink="http://www.w3.org/1999/xlink" version="1.1" width="500" height="500" viewBox="0 0 500 500" xml:space="preserve">
<desc>Created with Fabric.js 4.6.0</desc>
<defs>
</defs>
<g transform="matrix(1.06 0 0 0.96 278.89 211.49)" id="1Gy_SvWpDT4ZalVmUy85I"  >
<path style="stroke: none; stroke-width: 1; stroke-dasharray: none; stroke-linecap: butt; stroke-dashoffset: 0; stroke-linejoin: miter; stroke-miterlimit: 4; fill: rgb(208,109,109); fill-rule: nonzero; opacity: 1;" vector-effect="non-scaling-stroke"  transform=" translate(-303.72, -214.93)" d="M 450.775 25.734 L 450.775 425.84499999999997 L 156.656 425.84499999999997 L 156.656 4.021 L 429.062 4.021 C 441.071 4.021 450.775 13.725 450.775 25.734 z" stroke-linecap="round" />
</g>
<g transform="matrix(0.96 0 0 0.96 413.64 211.49)" id="_oVMT2MZDCHmxGBmZ1u2i"  >
<path style="stroke: none; stroke-width: 1; stroke-dasharray: none; stroke-linecap: butt; stroke-dashoffset: 0; stroke-linejoin: miter; stroke-miterlimit: 4; fill: rgb(0,0,0); fill-rule: nonzero; opacity: 0.08;" vector-effect="non-scaling-stroke"  transform=" translate(-428.04, -214.93)" d="M 450.775 25.734 L 450.775 425.84499999999997 L 427.025 425.84499999999997 L 427.025 25.734 C 427.025 13.725000000000001 417.32099999999997 4.021000000000001 405.31199999999995 4.021000000000001 L 429.06299999999993 4.021000000000001 C 441.071 4.021 450.775 13.725 450.775 25.734 z" stroke-linecap="round" />
</g>
<g transform="matrix(0.49 0 0 0.96 116.97 211.49)" id="6nVIubMeKTQZVpTx9ydXn"  >
<path style="stroke: none; stroke-width: 1; stroke-dasharray: none; stroke-linecap: butt; stroke-dashoffset: 0; stroke-linejoin: miter; stroke-miterlimit: 4; fill: rgb(129,103,103); fill-rule: nonzero; opacity: 1;" vector-effect="non-scaling-stroke"  transform=" translate(-15.09, -210.92)" d="M 0 421.846 L 0 0 L 30.176 0 L 30.176 421.846 z" stroke-linecap="round" />
</g>
<g transform="matrix(0.64 0 0 0.98 84.42 234.77)" id="gNT0lZ-bidLTK_Df-gDw9"  >
<path style="stroke: none; stroke-width: 1; stroke-dasharray: none; stroke-linecap: butt; stroke-dashoffset: 0; stroke-linejoin: miter; stroke-miterlimit: 4; fill: rgb(152,138,138); fill-rule: nonzero; opacity: 1;" vector-effect="non-scaling-stroke"  transform=" translate(-93.83, -235.46)" d="M 126.447 4.021 L 102.236 4.021 C 79.57600000000001 4.021 61.207 22.39 61.207 45.050000000000004 L 61.207 466.896 C 61.207 444.211 79.605 425.867 102.28999999999999 425.867 L 126.44699999999999 425.867 L 126.44699999999999 4.021 z" stroke-linecap="round" />
</g>
<g transform="matrix(0.96 0 0 0.96 250 451.19)" id="3ET5-n5FDk0KYuX77f45v"  >
<path style="stroke: none; stroke-width: 1; stroke-dasharray: none; stroke-linecap: butt; stroke-dashoffset: 0; stroke-linejoin: miter; stroke-miterlimit: 4; fill: rgb(191,100,100); fill-rule: nonzero; opacity: 1;" vector-effect="non-scaling-stroke"  transform=" translate(-256.01, -466.92)" d="M 442.486 499.18 C 422.181 474.737 424.95 450.294 450.792 425.851 L 102.29499999999996 425.851 C 79.61599999999996 425.851 61.23099999999996 444.236 61.23099999999996 466.915 L 61.23099999999996 466.915 C 61.23099999999996 489.594 79.61599999999996 507.97900000000004 102.29499999999996 507.97900000000004 L 438.25999999999993 507.97900000000004 C 442.8 507.979 445.387 502.672 442.486 499.18 z" stroke-linecap="round" />
</g>
<g transform="matrix(0.96 0 0 0.96 244.12 451.19)" id="Dzh5JgH83voIpZI9IDS2h"  >
<path style="stroke: none; stroke-width: 1; stroke-dasharray: none; stroke-linecap: butt; stroke-dashoffset: 0; stroke-linejoin: miter; stroke-miterlimit: 4; fill: rgb(187,187,187); fill-rule: nonzero; opacity: 1;" vector-effect="non-scaling-stroke"  transform=" translate(0, 0)" d="M -147.549 30.2105 C -164.207 30.2105 -177.758 16.6585 -177.758 -0.0015000000000000568 C -177.758 -16.6595 -164.20600000000002 -30.2105 -147.549 -30.2105 L 177.758 -30.2105 C 171.531 -20.305500000000002 168.388 -10.200499999999998 168.388 -0.0015000000000000568 C 168.388 10.2005 171.531 20.3045 177.758 30.2105 z" stroke-linecap="round" />
</g>
<g transform="matrix(1 0 0 1 282.35 231.43)" style="" id="6XKzqv33vXDKUle1_gyW1"  >
		<text xml:space="preserve" font-family="Almarai" font-size="380" font-style="normal" font-weight="700" line-height="0.7" style="stroke: none; stroke-width: 1; stroke-dasharray: none; stroke-linecap: butt; stroke-dashoffset: 0; stroke-linejoin: miter; stroke-miterlimit: 4; fill: rgb(82,82,82); fill-rule: nonzero; opacity: 1; white-space: pre;" ><tspan x="-146.64" y="119.37" >D</tspan></text>
</g>
</svg>