<?xml version="1.0" encoding="UTF-8" standalone="no" ?>
<!DOCTYPE svg PUBLIC "-//W3C//DTD SVG 1.1//EN" "http://www.w3.org/Graphics/SVG/1.1/DTD/svg11.dtd">
<svg xmlns="http://www.w3.org/2000/svg" xmlns:xlink="http://www.w3.org/1999/xlink" version="1.1" width="36" height="36" viewBox="0 0 36 36" xml:space="preserve">
<desc>Created with Fabric.js 4.6.0</desc>
<defs>
</defs>
<g transform="matrix(1 0 0 1 16.72 18)" id="LwUe2HalQGUY_lAsXu04r"  >
<path style="stroke: none; stroke-width: 1; stroke-dasharray: none; stroke-linecap: butt; stroke-dashoffset: 0; stroke-linejoin: miter; stroke-miterlimit: 4; fill: rgb(0,0,0); fill-rule: nonzero; opacity: 0;" vector-effect="non-scaling-stroke"  transform=" translate(-12, -12)" d="M 0 24 L 0 0 L 24 0 L 24 24 z" stroke-linecap="round" />
</g>
<g transform="matrix(1 0 0 1 18 18)" id="SRMfq6bjrJO4zc22zCS7N"  >
<path style="stroke: none; stroke-width: 1; stroke-dasharray: none; stroke-linecap: butt; stroke-dashoffset: 0; stroke-linejoin: miter; stroke-miterlimit: 4; fill: rgb(40,138,41); fill-rule: nonzero; opacity: 1;" vector-effect="non-scaling-stroke"  transform=" translate(-16, -14.71)" d="M 31.79468 16.22906 L 29.71204 14.15311 C 29.443179999999998 13.88024 29.00445 13.87757 28.735599999999998 14.15311 L 24.346939999999996 18.53909 L 19.325599999999994 23.571130000000004 L 15.437209999999995 19.678720000000006 C 15.164339999999996 19.404510000000005 14.725609999999994 19.404510000000005 14.455419999999995 19.678720000000006 L 12.376789999999994 21.756010000000007 C 12.103919999999995 22.030220000000007 12.103919999999995 22.468950000000007 12.376789999999994 22.740480000000005 L 18.832039999999996 29.201070000000005 C 19.106249999999996 29.475280000000005 19.550329999999995 29.475280000000005 19.816509999999994 29.201070000000005 L 31.792009999999994 17.213530000000006 C 32.068889999999996 16.943340000000006 32.068889999999996 16.504610000000007 31.794679999999993 16.229060000000004 z M 9.54911 18.92833 L 11.6264 16.845689999999998 C 13.401390000000001 15.074719999999997 16.4899 15.072029999999998 18.263550000000002 16.848359999999996 L 19.32159 17.906399999999998 L 24.07675 13.37596 L 24.07675 -0.00001000000000139778 L 0 -0.00001000000000139778 L 0 29.427119999999995 L 13.37597 29.427119999999995 L 9.55044 25.576179999999994 C 7.72061 23.739659999999994 7.72061 20.758159999999993 9.55044 18.926979999999993 z M 8.02426 2.67653 L 21.40023 2.67653 L 21.40023 5.35172 L 8.02426 5.35172 z M 8.02426 8.02692 L 21.40023 8.02692 L 21.40023 10.702110000000001 L 8.02426 10.702110000000001 z M 5.34906 16.0525 L 2.6738699999999995 16.0525 L 2.6738699999999995 13.377309999999998 L 5.34906 13.377309999999998 z M 5.34906 10.70211 L 2.6738699999999995 10.70211 L 2.6738699999999995 8.026919999999999 L 5.34906 8.026919999999999 z M 5.34906 5.35172 L 2.6738699999999995 5.35172 L 2.6738699999999995 2.67653 L 5.34906 2.67653 z M 8.02426 13.3773 L 10.69945 13.3773 L 10.69945 16.05249 L 8.02426 16.05249 z" stroke-linecap="round" />
</g>
</svg>