<?xml version="1.0" encoding="UTF-8" standalone="no" ?>
<!DOCTYPE svg PUBLIC "-//W3C//DTD SVG 1.1//EN" "http://www.w3.org/Graphics/SVG/1.1/DTD/svg11.dtd">
<svg xmlns="http://www.w3.org/2000/svg" xmlns:xlink="http://www.w3.org/1999/xlink" version="1.1" width="36" height="36" viewBox="0 0 36 36" xml:space="preserve">
<desc>Created with Fabric.js 4.6.0</desc>
<defs>
</defs>
<g transform="matrix(1 0 0 1 16.72 18)" id="LwUe2HalQGUY_lAsXu04r"  >
<path style="stroke: none; stroke-width: 1; stroke-dasharray: none; stroke-linecap: butt; stroke-dashoffset: 0; stroke-linejoin: miter; stroke-miterlimit: 4; fill: rgb(0,0,0); fill-rule: nonzero; opacity: 0;" vector-effect="non-scaling-stroke"  transform=" translate(-12, -12)" d="M 0 24 L 0 0 L 24 0 L 24 24 z" stroke-linecap="round" />
</g>
<g transform="matrix(1 0 0 1 18 18)" id="m-KAR6gpYS_E84f2eiFJe"  >
<path style="stroke: none; stroke-width: 1; stroke-dasharray: none; stroke-linecap: butt; stroke-dashoffset: 0; stroke-linejoin: miter; stroke-miterlimit: 4; fill: rgb(159,129,0); fill-rule: nonzero; opacity: 1;" vector-effect="non-scaling-stroke"  transform=" translate(-16, -16)" d="M 16 32 C 24.83656 32 32 24.83656 32 16 C 32 7.16344 24.83656 0 16 0 C 7.16344 0 0 7.16344 0 16 C 0 24.83656 7.16344 32 16 32 z M 10.096 13.024 L 14.896 8.448 C 14.96542 8.38028 15.046790000000001 8.326030000000001 15.136000000000001 8.288 C 15.21128 8.22006 15.29794 8.1659 15.392000000000001 8.128 C 15.77926 7.95684 16.220740000000003 7.95684 16.608 8.128 C 16.8044 8.20415 16.98383 8.31833 17.136 8.464 L 21.936 13.264 C 22.5634 13.891399999999999 22.5634 14.9086 21.936 15.536 C 21.3086 16.1634 20.2914 16.1634 19.664 15.536 L 17.6 13.456 L 17.6 22.4 C 17.6 23.283659999999998 16.883660000000003 24 16 24 C 15.11634 24 14.4 23.28366 14.4 22.4 L 14.4 13.344 L 12.304 15.344 C 11.66335 15.953719999999999 10.64972 15.92865 10.040000000000001 15.288 C 9.430280000000002 14.64735 9.455350000000001 13.63372 10.096 13.024000000000001 z" stroke-linecap="round" />
</g>
</svg>