<?xml version="1.0" encoding="UTF-8" standalone="no" ?>
<!DOCTYPE svg PUBLIC "-//W3C//DTD SVG 1.1//EN" "http://www.w3.org/Graphics/SVG/1.1/DTD/svg11.dtd">
<svg xmlns="http://www.w3.org/2000/svg" xmlns:xlink="http://www.w3.org/1999/xlink" version="1.1" width="500" height="500" viewBox="0 0 500 500" xml:space="preserve">
<desc>Created with Fabric.js 4.6.0</desc>
<defs>
</defs>
<g transform="matrix(1 0 0 1 248 248)" id="zQwWTR0JVn9fjOdhm4fMt"  >
<path style="stroke: none; stroke-width: 0; stroke-dasharray: none; stroke-linecap: butt; stroke-dashoffset: 0; stroke-linejoin: miter; stroke-miterlimit: 4; fill: rgb(163,170,160); fill-rule: nonzero; opacity: 1;" vector-effect="non-scaling-stroke"  transform=" translate(-254, -254)" d="M 408.95 377.15 C 400.9 387.269 392.01 396.47999999999996 382.4 404.69 C 380.12899999999996 406.629 377.82 408.509 375.47999999999996 410.33 C 375.21899999999994 410.53999999999996 374.95899999999995 410.75 374.7 410.96 C 374.61 411.03 374.51 411.09 374.42 411.15999999999997 C 368.44100000000003 415.76 362.22 419.98999999999995 355.78000000000003 423.849 C 353.86 424.99899999999997 351.92900000000003 426.12899999999996 349.96900000000005 427.219 C 330.20900000000006 438.179 308.61000000000007 445.69 285.99000000000007 449.36 C 275.4800000000001 451.059 264.76000000000005 451.92900000000003 253.88900000000007 451.92900000000003 C 225.96900000000005 451.92900000000003 198.94900000000007 446.19000000000005 173.56900000000007 434.889 C 165.82900000000006 431.42900000000003 158.26900000000006 427.459 151.09900000000007 423.079 C 144.13900000000007 418.839 137.32900000000006 414.079 130.85900000000007 408.939 C 125.64900000000007 404.798 120.68900000000006 400.428 115.96900000000007 395.85900000000004 C 115.90900000000006 395.80800000000005 115.84900000000006 395.749 115.78900000000006 395.689 C 83.14900000000006 363.968 62.60900000000006 322.308 57.36900000000006 276.47900000000004 C 52.82900000000006 236.72900000000004 60.199000000000055 197.43900000000002 78.31900000000006 162.72900000000004 C 83.30900000000005 153.16800000000003 89.12900000000006 143.94900000000004 95.72900000000006 135.16800000000003 C 96.81900000000006 133.71900000000002 97.92900000000006 132.27800000000005 99.06900000000006 130.84900000000005 C 99.61900000000006 130.15900000000005 100.16900000000005 129.47900000000004 100.71900000000007 128.79800000000006 C 138.47900000000007 82.54800000000006 194.23900000000006 56.06900000000006 254.13900000000007 56.06900000000006 C 299.24000000000007 56.06900000000006 341.7800000000001 70.93900000000006 377.1600000000001 99.05900000000005 C 378.7000000000001 100.27900000000005 380.05000000000007 101.38900000000005 381.30000000000007 102.44900000000005 C 384.4600000000001 105.08900000000006 387.5900000000001 107.87900000000005 390.81000000000006 110.94900000000005 C 392.62100000000004 112.66900000000005 394.39000000000004 114.42900000000006 396.12100000000004 116.20900000000006 C 396.17100000000005 116.27000000000007 396.23100000000005 116.31900000000006 396.28100000000006 116.37900000000006 C 428.6000000000001 149.70900000000006 448.11100000000005 193.29900000000006 451.43000000000006 239.95900000000006 C 454.97 289.51 439.88 338.23 408.95 377.15 z" stroke-linecap="round" />
</g>
<g transform="matrix(1 0 0 1 279 150)" id="NCIQt1zepzdeN4LWgw_0s"  >
<path style="stroke: rgb(94,94,93); stroke-width: 0; stroke-dasharray: none; stroke-linecap: butt; stroke-dashoffset: 0; stroke-linejoin: miter; stroke-miterlimit: 4; fill: rgb(101,101,101); fill-opacity: 0.5; fill-rule: nonzero; opacity: 1;" vector-effect="non-scaling-stroke"  transform=" translate(-44.5, -44.5)" d="M 0 44.5 C 0 19.92333 19.92333 0 44.5 0 C 69.07667000000001 0 89 19.92333 89 44.5 C 89 69.07667000000001 69.07667000000001 89 44.5 89 C 19.92333 89 0 69.07667000000001 0 44.5 z" stroke-linecap="round" />
</g>
<g transform="matrix(1 0 0 1 379 294)" id="9geKZxUVGjmM3ZVS8EF-5"  >
<path style="stroke: rgb(94,94,93); stroke-width: 0; stroke-dasharray: none; stroke-linecap: butt; stroke-dashoffset: 0; stroke-linejoin: miter; stroke-miterlimit: 4; fill: rgb(101,101,101); fill-opacity: 0.5; fill-rule: nonzero; opacity: 1;" vector-effect="non-scaling-stroke"  transform=" translate(-21.5, -21.5)" d="M 0 21.5 C 0 9.62588 9.62588 0 21.5 0 C 33.37412 0 43 9.62588 43 21.5 C 43 33.37412 33.37412 43 21.5 43 C 9.62588 43 0 33.37412 0 21.5 z" stroke-linecap="round" />
</g>
<g transform="matrix(1 0 0 1 160 290.5)" id="-J-lJtRYFxka6kD9IavkM"  >
<path style="stroke: rgb(94,94,93); stroke-width: 0; stroke-dasharray: none; stroke-linecap: butt; stroke-dashoffset: 0; stroke-linejoin: miter; stroke-miterlimit: 4; fill: rgb(101,101,101); fill-opacity: 0.5; fill-rule: nonzero; opacity: 1;" vector-effect="non-scaling-stroke"  transform=" translate(-27.84, -27.84)" d="M 0 27.84 C 0 12.46439 12.46439 0 27.84 0 C 43.21561 0 55.68 12.46439 55.68 27.84 C 55.68 43.21561 43.21561 55.68 27.84 55.68 C 12.46439 55.68 0 43.21561 0 27.84 z" stroke-linecap="round" />
</g>
<g transform="matrix(1 0 0 1 255.25 266.75)" id="_h_QuQ0W_RWp1TQDi49vW"  >
<path style="stroke: rgb(94,94,93); stroke-width: 0; stroke-dasharray: none; stroke-linecap: butt; stroke-dashoffset: 0; stroke-linejoin: miter; stroke-miterlimit: 4; fill: rgb(101,101,101); fill-opacity: 0.5; fill-rule: nonzero; opacity: 1;" vector-effect="non-scaling-stroke"  transform=" translate(-14.75, -14.75)" d="M 0 14.75 C 0 6.6038 6.6038 0 14.75 0 C 22.8962 0 29.5 6.6038 29.5 14.75 C 29.5 22.8962 22.8962 29.5 14.75 29.5 C 6.6038 29.5 0 22.8962 0 14.75 z" stroke-linecap="round" />
</g>
<g transform="matrix(1 0 0 1 145.5 178)" id="4BTVVQ7GBFXqU3JrezJr-"  >
<path style="stroke: rgb(94,94,93); stroke-width: 0; stroke-dasharray: none; stroke-linecap: butt; stroke-dashoffset: 0; stroke-linejoin: miter; stroke-miterlimit: 4; fill: rgb(101,101,101); fill-opacity: 0.5; fill-rule: nonzero; opacity: 1;" vector-effect="non-scaling-stroke"  transform=" translate(-28, -28)" d="M 0 28 C 0 12.53603 12.53603 0 28 0 C 43.46397 0 56 12.53603 56 28 C 56 43.46397 43.46397 56 28 56 C 12.53603 56 0 43.46397 0 28 z" stroke-linecap="round" />
</g>
<g transform="matrix(1 0 0 1 291.5 376.5)" id="dPrEnAl6EVIwvTbhE28pq"  >
<path style="stroke: rgb(94,94,93); stroke-width: 0; stroke-dasharray: none; stroke-linecap: butt; stroke-dashoffset: 0; stroke-linejoin: miter; stroke-miterlimit: 4; fill: rgb(101,101,101); fill-opacity: 0.5; fill-rule: nonzero; opacity: 1;" vector-effect="non-scaling-stroke"  transform=" translate(-27.5, -27.5)" d="M 0 27.5 C 0 12.31217 12.31217 0 27.5 0 C 42.68783 0 55 12.31217 55 27.5 C 55 42.68783 42.68783 55 27.5 55 C 12.31217 55 0 42.68783 0 27.5 z" stroke-linecap="round" />
</g>
<g transform="matrix(1 0 0 1 389 207)" id="N5aabTALo-puJwtBXJUCw"  >
<path style="stroke: rgb(94,94,93); stroke-width: 0; stroke-dasharray: none; stroke-linecap: butt; stroke-dashoffset: 0; stroke-linejoin: miter; stroke-miterlimit: 4; fill: rgb(101,101,101); fill-opacity: 0.5; fill-rule: nonzero; opacity: 1;" vector-effect="non-scaling-stroke"  transform=" translate(-18.5, -18.5)" d="M 0 18.5 C 0 8.28273 8.28273 0 18.5 0 C 28.71727 0 37 8.28273 37 18.5 C 37 28.71727 28.71727 37 18.5 37 C 8.28273 37 0 28.71727 0 18.5 z" stroke-linecap="round" />
</g>
<g transform="matrix(1 0 0 1 311 210)" id="Q1JzW6TYs-PKugcUWzcT7"  >
<path style="stroke: rgb(94,94,93); stroke-width: 0; stroke-dasharray: none; stroke-linecap: butt; stroke-dashoffset: 0; stroke-linejoin: miter; stroke-miterlimit: 4; fill: rgb(101,101,101); fill-opacity: 0.5; fill-rule: nonzero; opacity: 1;" vector-effect="non-scaling-stroke"  transform=" translate(-8, -8)" d="M 0 8 C 0 3.58172 3.58172 0 8 0 C 12.41828 0 16 3.58172 16 8 C 16 12.41828 12.41828 16 8 16 C 3.58172 16 0 12.41828 0 8 z" stroke-linecap="round" />
</g>
<g transform="matrix(1 0 0 1 173.81 284.37)" id="03ykHdRgDYKxi0gwvP1Y5"  >
<path style="stroke: rgb(94,94,93); stroke-width: 0; stroke-dasharray: none; stroke-linecap: butt; stroke-dashoffset: 0; stroke-linejoin: miter; stroke-miterlimit: 10; fill: rgb(102,104,101); fill-rule: nonzero; opacity: 0.2;" vector-effect="non-scaling-stroke"  transform=" translate(-179.81, -290.36)" d="M 299.55 450.38 C 287.28000000000003 452.71999999999997 274.68 453.93 261.89 453.93 C 233.96999999999997 453.93 206.95 448.19100000000003 181.57 436.89 C 173.82999999999998 433.43 166.26999999999998 429.46 159.1 425.08 C 152.14 420.84 145.32999999999998 416.08 138.85999999999999 410.94 C 133.57999999999998 406.75 128.55999999999997 402.32 123.78999999999999 397.69 C 122.49 396.429 121.22 395.15 119.97 393.86 C 119.91 393.809 119.85 393.75 119.78999999999999 393.69 C 87.14999999999999 361.969 66.60999999999999 320.30899999999997 61.36999999999999 274.48 C 56.82999999999999 234.73000000000002 64.19999999999999 195.44 82.32 160.73000000000002 C 87.30999999999999 151.169 93.13 141.95000000000002 99.72999999999999 133.169 C 100.82 131.72 101.92999999999999 130.27900000000002 103.07 128.85000000000002 C 103.61999999999999 128.16000000000003 104.16999999999999 127.48000000000002 104.72 126.79900000000002 C 104.56 129.81000000000003 104.42999999999999 132.99900000000002 104.33 136.37900000000002 C 101.94 215.52900000000002 117.3 389.809 289.991 447.35900000000004 C 293.12 448.41 296.31 449.42 299.55 450.38 z" stroke-linecap="round" />
</g>
</svg>