<?xml version="1.0" encoding="UTF-8" standalone="no" ?>
<!DOCTYPE svg PUBLIC "-//W3C//DTD SVG 1.1//EN" "http://www.w3.org/Graphics/SVG/1.1/DTD/svg11.dtd">
<svg xmlns="http://www.w3.org/2000/svg" xmlns:xlink="http://www.w3.org/1999/xlink" version="1.1" width="500" height="500" viewBox="0 0 500 500" xml:space="preserve">
<desc>Created with Fabric.js 4.6.0</desc>
<defs>
</defs>
<g transform="matrix(17.06 0 0 16.07 245.88 173.24)" id="9Q2yAKl4A6o2vro_IMxK9"  >
<path style="stroke: none; stroke-width: 1; stroke-dasharray: none; stroke-linecap: butt; stroke-dashoffset: 0; stroke-linejoin: miter; stroke-miterlimit: 4; fill: rgb(85,83,83); fill-rule: nonzero; opacity: 1;" vector-effect="non-scaling-stroke"  transform=" translate(-11.95, -7.98)" d="M 22.05 10.692 C 23.23589035429137 11.102059982376236 23.95179188263322 12.309069731850384 23.74297633789064 13.546357568136498 C 23.53416079314806 14.78364540442261 22.461783527440552 15.688849543609752 21.207 15.687000000000001 L 4.76 15.687000000000001 C 2.4942885899714526 15.697176777029592 0.5567474564601911 14.06008885239989 0.18858008477107546 11.824467116339026 C -0.17958728691804016 9.588845380278162 1.1306737168366294 7.416901868338613 3.279999999999999 6.699999999999999 C 3.2386013742125703 6.441729154576653 3.21786896634563 6.1805676941882535 3.2180000000000004 5.9190000000000005 C 3.2172377907986403 2.9767845796444274 5.474567943100313 0.5264555011026637 8.406972169393011 0.28637715063825464 C 11.339376395685708 0.04629880017384558 13.96519653450427 2.096840340404742 14.443 5 C 16.04228962095754 4.006415984783922 18.11320876115213 4.232678855955918 19.46021557020574 5.548167032777977 C 20.80722237925935 6.8636552096000365 21.08244608027885 8.928637748628502 20.127 10.551 L 21.207 10.551 C 21.493950365557687 10.550006293038244 21.778991417006335 10.597682198440687 22.05 10.692 Z" stroke-linecap="round" />
</g>
<g transform="matrix(17.06 0 0 16.07 140.64 173.24)" id="c7Xtfjzu422i8CuaxlPDy"  >
<path style="stroke: none; stroke-width: 1; stroke-dasharray: none; stroke-linecap: butt; stroke-dashoffset: 0; stroke-linejoin: miter; stroke-miterlimit: 4; fill: rgb(50,50,50); fill-rule: nonzero; opacity: 1;" vector-effect="non-scaling-stroke"  transform=" translate(-5.78, -7.98)" d="M 5.274 11.062 C 5.2747855806910975 9.082828829164587 6.541443695992705 7.326020339833709 8.418999999999999 6.700000000000001 C 8.377936258131552 6.441702320823105 8.357538256942528 6.180541026911187 8.358 5.9190000000000005 C 8.358983239989497 3.804259092854249 9.54145491120746 1.8673056601378795 11.421999999999999 0.9000000000000021 C 10.634158188563296 0.4902991797325624 9.759992535499785 0.27432884191687046 8.872 0.26999999999999924 C 7.372487307807419 0.2689383037477402 5.934056535068072 0.8640103257340439 4.873553125836088 1.9241386011106205 C 3.8130497166041053 2.984266876487197 3.2174688230589314 4.422487026032572 3.218 5.921999999999997 C 3.2180281877237857 6.182566125374147 3.238760093079778 6.442718099034823 3.2800000000000002 6.700000000000001 C 1.1355020484026896 7.420230548912059 -0.17003605584707282 9.589552285309846 0.19767849089213518 11.821678966326765 C 0.5653930376313432 14.053805647343683 2.4977951431153214 15.689717821140633 4.76 15.684000000000001 L 9.9 15.684000000000001 C 8.673232649763888 15.685859402621837 7.496117414723461 15.199625136817888 6.6282857897447 14.332543906672656 C 5.760454164765938 13.465462676527427 5.273201815306342 12.288768499711596 5.273999999999999 11.062000000000001 Z" stroke-linecap="round" />
</g>
<g transform="matrix(0.88 -0.37 -0.53 -1.27 201.81 287.34)" id="pxSZIArvLWJiX-4xZkZwL"  >
<path style="stroke: none; stroke-width: 1; stroke-dasharray: none; stroke-linecap: butt; stroke-dashoffset: 0; stroke-linejoin: miter; stroke-miterlimit: 4; fill: rgb(146,182,200); fill-rule: nonzero; opacity: 1;" vector-effect="non-scaling-stroke"  transform=" translate(0, 0)" d="M 0 -40.0125 C -14.8 -40.0125 -26.8 -28.012500000000003 -26.8 -13.212500000000002 C -26.8 -0.012500000000002842 -5.600000000000001 32.3875 -0.9000000000000021 39.4875 C -0.5000000000000021 40.1875 0.4999999999999978 40.1875 0.8999999999999979 39.4875 C 5.599999999999998 32.387499999999996 26.799999999999997 -0.012500000000002842 26.799999999999997 -13.212500000000006 C 26.799999999999997 -28.012500000000006 14.799999999999997 -40.0125 -3.552713678800501e-15 -40.0125 z" stroke-linecap="round" />
</g>
<g transform="matrix(0.88 -0.37 -0.53 -1.27 296.9 287.37)" id="UbuDD-fBsVf97h41idk0N"  >
<path style="stroke: none; stroke-width: 1; stroke-dasharray: none; stroke-linecap: butt; stroke-dashoffset: 0; stroke-linejoin: miter; stroke-miterlimit: 4; fill: rgb(146,182,200); fill-rule: nonzero; opacity: 1;" vector-effect="non-scaling-stroke"  transform=" translate(0, 0)" d="M 0 -40.0125 C -14.8 -40.0125 -26.8 -28.012500000000003 -26.8 -13.212500000000002 C -26.8 -0.012500000000002842 -5.600000000000001 32.3875 -0.9000000000000021 39.4875 C -0.5000000000000021 40.1875 0.4999999999999978 40.1875 0.8999999999999979 39.4875 C 5.599999999999998 32.387499999999996 26.799999999999997 -0.012500000000002842 26.799999999999997 -13.212500000000006 C 26.799999999999997 -28.012500000000006 14.799999999999997 -40.0125 -3.552713678800501e-15 -40.0125 z" stroke-linecap="round" />
</g>
<g transform="matrix(0.88 -0.37 -0.53 -1.27 390.41 287.31)" id="MJJNfEuBIiQO_DIKXdKA6"  >
<path style="stroke: none; stroke-width: 1; stroke-dasharray: none; stroke-linecap: butt; stroke-dashoffset: 0; stroke-linejoin: miter; stroke-miterlimit: 4; fill: rgb(146,182,200); fill-rule: nonzero; opacity: 1;" vector-effect="non-scaling-stroke"  transform=" translate(0, 0)" d="M 0 -40.0125 C -14.8 -40.0125 -26.8 -28.012500000000003 -26.8 -13.212500000000002 C -26.8 -0.012500000000002842 -5.600000000000001 32.3875 -0.9000000000000021 39.4875 C -0.5000000000000021 40.1875 0.4999999999999978 40.1875 0.8999999999999979 39.4875 C 5.599999999999998 32.387499999999996 26.799999999999997 -0.012500000000002842 26.799999999999997 -13.212500000000006 C 26.799999999999997 -28.012500000000006 14.799999999999997 -40.0125 -3.552713678800501e-15 -40.0125 z" stroke-linecap="round" />
</g>
<g transform="matrix(0.88 -0.37 -0.53 -1.27 275 376.31)" id="e_OArMxBnU6quMITh-EIB"  >
<path style="stroke: none; stroke-width: 1; stroke-dasharray: none; stroke-linecap: butt; stroke-dashoffset: 0; stroke-linejoin: miter; stroke-miterlimit: 4; fill: rgb(146,182,200); fill-rule: nonzero; opacity: 1;" vector-effect="non-scaling-stroke"  transform=" translate(0, 0)" d="M 0 -40.0125 C -14.8 -40.0125 -26.8 -28.012500000000003 -26.8 -13.212500000000002 C -26.8 -0.012500000000002842 -5.600000000000001 32.3875 -0.9000000000000021 39.4875 C -0.5000000000000021 40.1875 0.4999999999999978 40.1875 0.8999999999999979 39.4875 C 5.599999999999998 32.387499999999996 26.799999999999997 -0.012500000000002842 26.799999999999997 -13.212500000000006 C 26.799999999999997 -28.012500000000006 14.799999999999997 -40.0125 -3.552713678800501e-15 -40.0125 z" stroke-linecap="round" />
</g>
<g transform="matrix(0.88 -0.37 -0.53 -1.27 369.02 376.31)" id="uTzFE6JLdKApNpoEyfl9m"  >
<path style="stroke: none; stroke-width: 1; stroke-dasharray: none; stroke-linecap: butt; stroke-dashoffset: 0; stroke-linejoin: miter; stroke-miterlimit: 4; fill: rgb(146,182,200); fill-rule: nonzero; opacity: 1;" vector-effect="non-scaling-stroke"  transform=" translate(0, 0)" d="M 0 -40.0125 C -14.8 -40.0125 -26.8 -28.012500000000003 -26.8 -13.212500000000002 C -26.8 -0.012500000000002842 -5.600000000000001 32.3875 -0.9000000000000021 39.4875 C -0.5000000000000021 40.1875 0.4999999999999978 40.1875 0.8999999999999979 39.4875 C 5.599999999999998 32.387499999999996 26.799999999999997 -0.012500000000002842 26.799999999999997 -13.212500000000006 C 26.799999999999997 -28.012500000000006 14.799999999999997 -40.0125 -3.552713678800501e-15 -40.0125 z" stroke-linecap="round" />
</g>
<g transform="matrix(0.88 -0.37 -0.53 -1.27 184.07 379.75)" id="HQYpYUZ6bD5oJOwG_vBVS"  >
<path style="stroke: none; stroke-width: 1; stroke-dasharray: none; stroke-linecap: butt; stroke-dashoffset: 0; stroke-linejoin: miter; stroke-miterlimit: 4; fill: rgb(146,182,200); fill-rule: nonzero; opacity: 1;" vector-effect="non-scaling-stroke"  transform=" translate(0, 0)" d="M 0 -40.0125 C -14.8 -40.0125 -26.8 -28.012500000000003 -26.8 -13.212500000000002 C -26.8 -0.012500000000002842 -5.600000000000001 32.3875 -0.9000000000000021 39.4875 C -0.5000000000000021 40.1875 0.4999999999999978 40.1875 0.8999999999999979 39.4875 C 5.599999999999998 32.387499999999996 26.799999999999997 -0.012500000000002842 26.799999999999997 -13.212500000000006 C 26.799999999999997 -28.012500000000006 14.799999999999997 -40.0125 -3.552713678800501e-15 -40.0125 z" stroke-linecap="round" />
</g>
<g transform="matrix(0.88 -0.37 -0.53 -1.27 114.09 287.31)" id="mgNkHGptwqkqDr9qrMaXk"  >
<path style="stroke: none; stroke-width: 1; stroke-dasharray: none; stroke-linecap: butt; stroke-dashoffset: 0; stroke-linejoin: miter; stroke-miterlimit: 4; fill: rgb(146,182,200); fill-rule: nonzero; opacity: 1;" vector-effect="non-scaling-stroke"  transform=" translate(0, 0)" d="M 0 -40.0125 C -14.8 -40.0125 -26.8 -28.012500000000003 -26.8 -13.212500000000002 C -26.8 -0.012500000000002842 -5.600000000000001 32.3875 -0.9000000000000021 39.4875 C -0.5000000000000021 40.1875 0.4999999999999978 40.1875 0.8999999999999979 39.4875 C 5.599999999999998 32.387499999999996 26.799999999999997 -0.012500000000002842 26.799999999999997 -13.212500000000006 C 26.799999999999997 -28.012500000000006 14.799999999999997 -40.0125 -3.552713678800501e-15 -40.0125 z" stroke-linecap="round" />
</g>
</svg>